<?xml version="1.0" encoding="iso-8859-1"?>
<!-- Generator: Adobe Illustrator 19.0.0, SVG Export Plug-In . SVG Version: 6.00 Build 0)  -->
<svg version="1.1" id="Capa_1" xmlns="http://www.w3.org/2000/svg" xmlns:xlink="http://www.w3.org/1999/xlink" x="0px" y="0px"
	 viewBox="0 0 512 512" style="enable-background:new 0 0 512 512;" xml:space="preserve">
<path style="fill:#FD3018;" d="M436.3,75.7C388.001,27.4,324.101,0,256,0S123.999,27.4,75.7,75.7S0,187.899,0,256
	c0,34.2,7.599,67.2,20.2,97.5c12.6,30.599,31.2,58.5,55.5,82.8C124,484.6,187.9,512,256,512s132.001-27.4,180.3-75.7
	C484.6,387.999,512,324.099,512,256C512,187.899,484.6,123.999,436.3,75.7z"/>
<path style="fill:#FD3018;" d="M436.3,75.7C388.001,27.4,324.101,0,256,0v15v15v452v15v15c68.101,0,132.001-27.4,180.3-75.7
	C484.6,387.999,512,324.099,512,256C512,187.899,484.6,123.999,436.3,75.7z"/>
<path style="fill:#CAE8F9;" d="M406,241v30c0,8.399-6.599,15-15,15H121c-8.401,0-15-6.601-15-15v-30c0-8.401,6.599-15,15-15h270
	C399.401,226,406,232.599,406,241z"/>
<path style="fill:#CAE8F9;" d="M406,241v30c0,8.399-6.599,15-15,15H256v-60h135C399.401,226,406,232.599,406,241z"/>
<g>
</g>
<g>
</g>
<g>
</g>
<g>
</g>
<g>
</g>
<g>
</g>
<g>
</g>
<g>
</g>
<g>
</g>
<g>
</g>
<g>
</g>
<g>
</g>
<g>
</g>
<g>
</g>
<g>
</g>
</svg>
